<mxfile host="app.diagrams.net" agent="Mozilla/5.0 (X11; Linux x86_64) AppleWebKit/537.36 (KHTML, like Gecko) Chrome/132.0.0.0 Safari/537.36" version="26.0.6">
  <diagram name="Strona-1" id="9sP12jTmz57WXhgKL9cy">
    <mxGraphModel dx="1393" dy="826" grid="0" gridSize="10" guides="1" tooltips="1" connect="1" arrows="1" fold="1" page="1" pageScale="1" pageWidth="827" pageHeight="1169" background="none" math="0" shadow="1">
      <root>
        <mxCell id="0" />
        <mxCell id="1" parent="0" />
        <mxCell id="nS9M6FIyOMk2aieBz9es-1" value="Bank" style="rounded=0;whiteSpace=wrap;html=1;" vertex="1" parent="1">
          <mxGeometry x="541.5" y="372" width="120" height="60" as="geometry" />
        </mxCell>
        <mxCell id="nS9M6FIyOMk2aieBz9es-14" value="REST" style="rounded=0;orthogonalLoop=1;jettySize=auto;html=1;exitX=1;exitY=1;exitDx=0;exitDy=0;" edge="1" parent="1" source="nS9M6FIyOMk2aieBz9es-2" target="nS9M6FIyOMk2aieBz9es-1">
          <mxGeometry relative="1" as="geometry" />
        </mxCell>
        <mxCell id="nS9M6FIyOMk2aieBz9es-2" value="Device Controller" style="rounded=0;whiteSpace=wrap;html=1;" vertex="1" parent="1">
          <mxGeometry x="239" y="58" width="120" height="60" as="geometry" />
        </mxCell>
        <mxCell id="nS9M6FIyOMk2aieBz9es-11" style="rounded=0;orthogonalLoop=1;jettySize=auto;html=1;entryX=1;entryY=0.5;entryDx=0;entryDy=0;" edge="1" parent="1" source="nS9M6FIyOMk2aieBz9es-3" target="nS9M6FIyOMk2aieBz9es-2">
          <mxGeometry relative="1" as="geometry" />
        </mxCell>
        <mxCell id="nS9M6FIyOMk2aieBz9es-3" value="NV200" style="rhombus;whiteSpace=wrap;html=1;" vertex="1" parent="1">
          <mxGeometry x="517" y="46" width="80" height="80" as="geometry" />
        </mxCell>
        <mxCell id="nS9M6FIyOMk2aieBz9es-13" style="rounded=0;orthogonalLoop=1;jettySize=auto;html=1;exitX=0.4;exitY=-0.037;exitDx=0;exitDy=0;exitPerimeter=0;" edge="1" parent="1" source="nS9M6FIyOMk2aieBz9es-4" target="nS9M6FIyOMk2aieBz9es-2">
          <mxGeometry relative="1" as="geometry" />
        </mxCell>
        <mxCell id="nS9M6FIyOMk2aieBz9es-15" value="SELECT" style="edgeLabel;html=1;align=center;verticalAlign=middle;resizable=0;points=[];" vertex="1" connectable="0" parent="nS9M6FIyOMk2aieBz9es-13">
          <mxGeometry x="0.0732" relative="1" as="geometry">
            <mxPoint as="offset" />
          </mxGeometry>
        </mxCell>
        <mxCell id="nS9M6FIyOMk2aieBz9es-4" value="Database" style="shape=cylinder3;whiteSpace=wrap;html=1;boundedLbl=1;backgroundOutline=1;size=15;" vertex="1" parent="1">
          <mxGeometry x="271.5" y="365" width="60" height="80" as="geometry" />
        </mxCell>
        <mxCell id="nS9M6FIyOMk2aieBz9es-17" value="consume" style="rounded=0;orthogonalLoop=1;jettySize=auto;html=1;exitX=1;exitY=0.5;exitDx=0;exitDy=0;exitPerimeter=0;entryX=0.25;entryY=0;entryDx=0;entryDy=0;" edge="1" parent="1" source="nS9M6FIyOMk2aieBz9es-6" target="nS9M6FIyOMk2aieBz9es-8">
          <mxGeometry relative="1" as="geometry" />
        </mxCell>
        <mxCell id="nS9M6FIyOMk2aieBz9es-6" value="Message Queue" style="shape=cylinder3;whiteSpace=wrap;html=1;boundedLbl=1;backgroundOutline=1;size=15;direction=south;" vertex="1" parent="1">
          <mxGeometry x="90.5" y="340" width="120" height="60" as="geometry" />
        </mxCell>
        <mxCell id="nS9M6FIyOMk2aieBz9es-18" value="REST" style="rounded=0;orthogonalLoop=1;jettySize=auto;html=1;exitX=1;exitY=0.5;exitDx=0;exitDy=0;entryX=0;entryY=0.5;entryDx=0;entryDy=0;" edge="1" parent="1" source="nS9M6FIyOMk2aieBz9es-8" target="nS9M6FIyOMk2aieBz9es-9">
          <mxGeometry relative="1" as="geometry" />
        </mxCell>
        <mxCell id="nS9M6FIyOMk2aieBz9es-8" value="Message Consumer" style="rounded=0;whiteSpace=wrap;html=1;" vertex="1" parent="1">
          <mxGeometry x="144.5" y="491" width="120" height="60" as="geometry" />
        </mxCell>
        <mxCell id="nS9M6FIyOMk2aieBz9es-19" value="REST" style="rounded=0;orthogonalLoop=1;jettySize=auto;html=1;exitX=1;exitY=0.5;exitDx=0;exitDy=0;entryX=0.5;entryY=1;entryDx=0;entryDy=0;" edge="1" parent="1" source="nS9M6FIyOMk2aieBz9es-9" target="nS9M6FIyOMk2aieBz9es-1">
          <mxGeometry relative="1" as="geometry" />
        </mxCell>
        <mxCell id="nS9M6FIyOMk2aieBz9es-9" value="Main" style="rounded=0;whiteSpace=wrap;html=1;" vertex="1" parent="1">
          <mxGeometry x="346.5" y="493" width="120" height="60" as="geometry" />
        </mxCell>
        <mxCell id="nS9M6FIyOMk2aieBz9es-12" value="INSERT/UPDATE" style="rounded=0;orthogonalLoop=1;jettySize=auto;html=1;exitX=0;exitY=0.5;exitDx=0;exitDy=0;entryX=1;entryY=0.5;entryDx=0;entryDy=0;entryPerimeter=0;" edge="1" parent="1" source="nS9M6FIyOMk2aieBz9es-1" target="nS9M6FIyOMk2aieBz9es-4">
          <mxGeometry relative="1" as="geometry" />
        </mxCell>
        <mxCell id="nS9M6FIyOMk2aieBz9es-16" value="produce" style="rounded=0;orthogonalLoop=1;jettySize=auto;html=1;exitX=0.25;exitY=1;exitDx=0;exitDy=0;entryX=0;entryY=0.5;entryDx=0;entryDy=0;entryPerimeter=0;" edge="1" parent="1" source="nS9M6FIyOMk2aieBz9es-2" target="nS9M6FIyOMk2aieBz9es-6">
          <mxGeometry relative="1" as="geometry" />
        </mxCell>
        <mxCell id="nS9M6FIyOMk2aieBz9es-21" style="rounded=0;orthogonalLoop=1;jettySize=auto;html=1;exitX=0.5;exitY=0;exitDx=0;exitDy=0;entryX=0.855;entryY=1;entryDx=0;entryDy=-4.35;entryPerimeter=0;" edge="1" parent="1" source="nS9M6FIyOMk2aieBz9es-9" target="nS9M6FIyOMk2aieBz9es-4">
          <mxGeometry relative="1" as="geometry" />
        </mxCell>
        <mxCell id="nS9M6FIyOMk2aieBz9es-29" value="" style="rounded=1;whiteSpace=wrap;html=1;fillColor=none;" vertex="1" parent="1">
          <mxGeometry x="115" y="21" width="522" height="138" as="geometry" />
        </mxCell>
        <mxCell id="nS9M6FIyOMk2aieBz9es-30" value="Local device" style="text;html=1;align=center;verticalAlign=middle;whiteSpace=wrap;rounded=0;shadow=0;fontStyle=1;fontSize=15;" vertex="1" parent="1">
          <mxGeometry x="125" y="28" width="108" height="30" as="geometry" />
        </mxCell>
        <mxCell id="nS9M6FIyOMk2aieBz9es-32" value="" style="rounded=1;whiteSpace=wrap;html=1;fillColor=none;" vertex="1" parent="1">
          <mxGeometry x="22" y="263" width="670" height="327" as="geometry" />
        </mxCell>
        <mxCell id="nS9M6FIyOMk2aieBz9es-34" value="Server" style="text;html=1;align=center;verticalAlign=middle;whiteSpace=wrap;rounded=0;shadow=0;fontStyle=1;fontSize=15;textShadow=0;" vertex="1" parent="1">
          <mxGeometry x="20" y="278" width="108" height="30" as="geometry" />
        </mxCell>
        <mxCell id="nS9M6FIyOMk2aieBz9es-35" value="E-mail service" style="shape=message;html=1;html=1;outlineConnect=0;labelPosition=center;verticalLabelPosition=bottom;align=center;verticalAlign=top;" vertex="1" parent="1">
          <mxGeometry x="567" y="622" width="118" height="81" as="geometry" />
        </mxCell>
        <mxCell id="nS9M6FIyOMk2aieBz9es-44" style="rounded=0;orthogonalLoop=1;jettySize=auto;html=1;" edge="1" parent="1" source="nS9M6FIyOMk2aieBz9es-36" target="nS9M6FIyOMk2aieBz9es-39">
          <mxGeometry relative="1" as="geometry" />
        </mxCell>
        <mxCell id="nS9M6FIyOMk2aieBz9es-36" value="Actor" style="shape=umlActor;verticalLabelPosition=bottom;verticalAlign=top;html=1;outlineConnect=0;" vertex="1" parent="1">
          <mxGeometry x="104" y="675" width="69" height="103" as="geometry" />
        </mxCell>
        <mxCell id="nS9M6FIyOMk2aieBz9es-41" value="REST" style="rounded=0;orthogonalLoop=1;jettySize=auto;html=1;exitX=0.5;exitY=0;exitDx=0;exitDy=0;entryX=0.25;entryY=1;entryDx=0;entryDy=0;" edge="1" parent="1" source="nS9M6FIyOMk2aieBz9es-39" target="nS9M6FIyOMk2aieBz9es-9">
          <mxGeometry relative="1" as="geometry" />
        </mxCell>
        <mxCell id="nS9M6FIyOMk2aieBz9es-39" value="Mobile app" style="shape=image;html=1;verticalAlign=top;verticalLabelPosition=bottom;labelBackgroundColor=#ffffff;imageAspect=0;aspect=fixed;image=https://cdn4.iconfinder.com/data/icons/essential-app-1/16/mobile-phone-smart-screen-128.png" vertex="1" parent="1">
          <mxGeometry x="320" y="670.5" width="112" height="112" as="geometry" />
        </mxCell>
        <mxCell id="nS9M6FIyOMk2aieBz9es-42" value="" style="rounded=0;orthogonalLoop=1;jettySize=auto;html=1;exitX=0.75;exitY=1;exitDx=0;exitDy=0;entryX=0;entryY=0.3;entryDx=0;entryDy=0;" edge="1" parent="1" source="nS9M6FIyOMk2aieBz9es-9" target="nS9M6FIyOMk2aieBz9es-35">
          <mxGeometry relative="1" as="geometry" />
        </mxCell>
        <mxCell id="nS9M6FIyOMk2aieBz9es-43" style="rounded=0;orthogonalLoop=1;jettySize=auto;html=1;exitX=1;exitY=0.25;exitDx=0;exitDy=0;entryX=0;entryY=0.7;entryDx=0;entryDy=0;" edge="1" parent="1" source="nS9M6FIyOMk2aieBz9es-39" target="nS9M6FIyOMk2aieBz9es-35">
          <mxGeometry relative="1" as="geometry" />
        </mxCell>
      </root>
    </mxGraphModel>
  </diagram>
</mxfile>
